<svg width="1600" height="1600" viewBox="0 0 1600 1600" fill="none" xmlns="http://www.w3.org/2000/svg">
<path fill-rule="evenodd" clip-rule="evenodd" d="M718.554 165.328C698.432 168.219 661.665 175.999 636.857 182.616L591.747 194.643V313.079C591.747 378.221 589.376 432.967 586.477 434.727C583.577 436.494 554.639 421.782 522.162 402.036C489.685 382.283 442.399 354.777 417.076 340.914L371.034 315.695L328.74 360.235C255.575 437.282 218.536 497.719 182.152 599.395C158.721 664.894 158.853 676.914 183.188 692.297C249.79 734.392 325.959 777.097 353.339 787.693L386.066 800.357L362.016 812.199C348.785 818.719 297.925 846.095 248.983 873.047L160 922.046L164.346 945.45C169.651 974.038 202.26 1055.89 229.633 1109.3C261.658 1171.8 354.264 1281.63 374.935 1281.63C387.255 1281.63 456.409 1244.46 529.866 1198.36C558.929 1180.12 583.96 1165.18 585.489 1165.18C587.019 1165.18 587.276 1220.35 586.059 1287.79L583.848 1410.4L647.148 1425.04C765.924 1452.51 966.014 1440.33 1003.55 1403.35C1016.81 1390.3 1017.43 1382.94 1014.55 1273.97C1011.51 1158.5 1011.51 1158.44 1025.86 1167.7C1086.95 1207.11 1144.57 1241.99 1183.75 1263.26L1229.95 1288.34L1271.8 1244.27C1322.74 1190.62 1350.34 1151.8 1380.49 1091.34C1403.01 1046.19 1440 947.614 1440 932.744C1440 923.642 1368.91 878.225 1284.04 833.123L1221.94 800.117L1253.98 784.884C1325.46 750.906 1440 683.434 1440 675.318C1440 654.031 1408.29 567.964 1382.03 517.945C1351.03 458.925 1289.37 374.605 1249.92 337.297L1225.48 314.175L1120.67 376.338L1015.87 438.501V316.64V194.78L989.8 187.259C900.733 161.589 800.814 153.507 718.554 165.328ZM712.032 576.258C777.292 604.696 899.162 591.95 931.549 553.307C949.981 531.314 956.871 540.156 954.438 582.642C950.697 647.86 968.065 694.345 1012.56 738.173C1033.19 758.488 1063.43 780.706 1079.78 787.542L1109.52 799.987L1092.24 808.781C1055.62 827.438 1004.39 869.917 984.599 898.053C966.57 923.683 963.303 935.758 959.11 992.175C956.468 1027.77 952.804 1058.37 950.975 1060.18C949.14 1061.98 934.983 1054.43 919.513 1043.39C847.231 991.812 728.608 998.373 663.014 1057.57L647.37 1071.69V1016.57C647.37 928.08 609.678 864.965 530.589 820.993L493.37 800.302L530.339 780.384C581.742 752.693 604.2 730.002 627.38 682.325C644.193 647.743 647.363 632.62 647.363 586.957L647.37 532.677L663.097 547.238C671.754 555.245 693.767 568.307 712.032 576.258Z" fill="#6495ED"/>
</svg>
