<svg width="840" height="380" viewBox="0 0 840 380" fill="none" xmlns="http://www.w3.org/2000/svg">
<g clip-path="url(#clip0_90_7)">
<path fill-rule="evenodd" clip-rule="evenodd" d="M391.074 6.04659C389.429 7.69218 389.083 9.74877 389.885 13.1342C390.506 15.7563 391.129 22.7698 391.268 28.7186C391.408 34.6674 392.297 40.9253 393.244 42.625C394.189 44.3246 395.812 48.0021 396.85 50.7957C397.887 53.5909 400.032 56.57 401.614 57.4167C403.368 58.3562 404.493 60.6445 404.493 63.2728C404.493 67.2068 403.78 67.7538 396.444 69.4473C372.8 74.9048 346.636 95.2436 339.819 113.462C332.32 133.503 337.231 154.913 351.384 163.887C355.403 166.436 359.926 168.913 361.434 169.392C363.594 170.078 364.278 172.291 364.66 179.839L365.145 189.414L366.443 180.049C367.704 170.953 367.865 170.703 371.998 171.308C378.495 172.262 394.838 167.504 405.849 161.452L415.727 156.022L436.405 161.637C452.324 165.962 460.266 167.299 470.922 167.449L484.76 167.642L486.591 175.823C487.599 180.324 489.094 184.006 489.915 184.006C490.758 184.006 490.987 181.988 490.442 179.371C489.91 176.821 489.063 172.761 488.56 170.347C487.761 166.521 488.26 165.703 492.453 163.966C503.039 159.582 509.104 146.587 507.301 132.157C503.993 105.676 475.05 77.0201 445.314 70.7838L437.163 69.0733L440.915 64.6156C444.336 60.5503 444.667 58.8043 444.667 44.8237C444.667 35.6316 445.286 29.4912 446.212 29.4912C448.855 29.4912 447.908 23.2287 444.551 18.5129C442.788 16.0375 437.052 11.8517 431.803 9.21106C423.416 4.99124 420.516 4.37009 407.829 4.06878C396.71 3.80611 392.861 4.26039 391.074 6.04659ZM422.421 8.27623C422.923 8.77841 419.871 10.6789 415.641 12.4991C406.928 16.2477 401.582 21.3451 397.173 30.1123L394.142 36.1415L393.284 22.3866C392.811 14.8231 392.66 8.25461 392.947 7.78952C393.646 6.65847 421.259 7.11428 422.421 8.27623ZM435.896 14.4259C438.141 16.07 437.366 16.3929 430.667 16.5953C410.801 17.1949 394.152 36.449 401.872 49.8965C403.233 52.2714 403.797 54.2136 403.124 54.2136C401.044 54.2136 398.312 46.6285 398.312 40.8542C398.312 34.0077 401.762 26.5693 407.479 21.0917C415.145 13.7492 430.164 10.2262 435.896 14.4259ZM440.158 31.0363C440.938 31.0363 441.576 37.3483 441.576 45.0617C441.576 58.5849 441.411 59.2524 436.941 63.7225C434.391 66.272 432.305 69.6821 432.305 71.2999C432.305 74.88 426.656 76.5874 418.949 75.3358C411.036 74.0518 409.128 71.8206 409.128 63.8507C409.128 59.7762 407.73 54.0699 405.769 50.1452C402.173 42.9464 402.859 40.0894 407.487 42.9788C411.148 45.2656 412.218 44.0944 412.218 37.8025C412.218 33.2706 412.762 32.6309 417.24 31.8893C424.81 30.6346 434.367 29.9671 436.681 30.5326C437.812 30.8107 439.377 31.0363 440.158 31.0363ZM419.773 38.195C418.711 39.476 420.148 40.1527 424.915 40.6178C431.201 41.2297 440.031 39.1886 440.031 37.1242C440.031 35.3844 421.282 36.3764 419.773 38.195ZM421.489 43.3975C421.489 44.2474 422.185 44.9427 423.034 44.9427C423.884 44.9427 424.58 44.2474 424.58 43.3975C424.58 42.5477 423.884 41.8524 423.034 41.8524C422.185 41.8524 421.489 42.5477 421.489 43.3975ZM436.184 43.4223C436.718 44.286 437.801 44.5935 438.593 44.1037C440.736 42.7795 440.337 41.8524 437.622 41.8524C436.298 41.8524 435.651 42.5585 436.184 43.4223ZM430.76 48.033C430.76 52.5928 432.741 54.1673 434.632 51.1094C435.875 49.0976 434.079 43.3975 432.202 43.3975C431.409 43.3975 430.76 45.4835 430.76 48.033ZM421.489 54.9028C421.489 56.1914 423.187 57.6717 425.264 58.1924C429.485 59.2524 432.834 57.8633 431.451 55.6274C430.953 54.8224 429.913 54.5551 429.141 55.0325C428.367 55.51 426.329 55.15 424.612 54.2306C422.117 52.8956 421.489 53.03 421.489 54.9028ZM408.953 74.4165C416.98 80.3514 435.396 79.602 435.396 73.3411C435.396 70.5443 438.347 70.5938 439.425 73.4075C442.938 82.5579 424.076 87.6507 408.669 81.7127C403.464 79.7055 398.229 71.2103 402.198 71.2103C403.528 71.2103 406.569 72.6535 408.953 74.4165ZM398.312 74.7842C398.312 77.839 406.123 84.4662 412.062 86.4517C423.867 90.3964 438.402 86.6649 441.887 78.7954C444.529 72.825 447.867 73.0243 461.842 79.9806C486.208 92.11 503.9 116.364 504.071 137.874C504.161 148.986 501.981 153.643 493.843 159.718C483.994 167.072 450.084 164.646 424.002 154.724L419.562 153.035L432.5 143.613C447.483 132.703 460.399 126.14 472.006 123.543C481.939 121.321 483.096 118.325 473.465 119.77C467.133 120.72 466.617 120.518 464.931 116.449C462.522 110.633 456.013 102.636 454.725 103.91C454.155 104.474 454.883 106.757 456.342 108.98C459.693 114.096 458.822 114.94 452.471 112.725C447.347 110.939 403.439 111.791 392.351 113.892C387.207 114.865 387.171 114.833 388.225 110.038C389.633 103.629 387.893 103.878 385.133 110.48C383.491 114.411 381.442 116.239 377.1 117.644C369.155 120.213 359.201 125.325 360.199 126.321C360.647 126.771 364.819 125.714 369.47 123.974C379.834 120.097 399.336 116.491 416.854 115.215L429.988 114.258L433.487 120.507C441.273 134.409 441.805 133.055 423.356 146.289C414.256 152.816 403.209 159.829 398.808 161.874C378.549 171.284 356.452 168.706 346.82 155.809C341.253 148.354 339.105 140.039 339.975 129.316C341.395 111.826 351.489 96.9015 370.178 84.6578C385.714 74.4798 398.312 70.0592 398.312 74.7842ZM575.623 105.137C568.492 106.522 564.621 109.896 560.698 118.155C553.254 133.823 552.846 155.871 559.81 166.134L563.497 171.566L557.775 173.146C554.629 174.014 549.029 176.466 545.33 178.594C541.631 180.72 538.361 182.461 538.062 182.461C537.763 182.461 537.612 179.507 537.726 175.894C538.076 164.836 535.538 141.801 533.388 136.493C530.881 130.309 526.947 129.883 526.275 135.72C525.926 138.764 524.8 140.11 522.307 140.464C518.512 141.003 515.051 145.982 516.269 149.154C516.689 150.248 513.33 161.144 508.804 173.37C504.248 185.675 499.781 200.903 498.795 207.488C494.728 234.664 505.261 252.644 522.686 248.271L526.56 247.299V262.007C526.56 270.782 527.182 276.716 528.105 276.716C529.009 276.716 529.658 271.423 529.67 263.968C529.699 245.198 534.463 224.593 542.723 207.508C546.575 199.541 548.859 193.305 547.801 193.648C544.573 194.696 535.662 213.814 531.289 229.075C527.184 243.397 527.117 243.504 521.298 244.963C513.863 246.828 508.324 244.032 504.544 236.511C498.946 225.37 502.004 197.319 511.236 175.122C514.286 167.787 515.073 167.01 519.436 167.01C522.091 167.01 526.467 166.378 529.162 165.605C532.935 164.522 534.256 164.704 534.905 166.396C535.786 168.691 533.267 199.778 531.819 204.48C531.362 205.968 531.674 207.184 532.513 207.184C533.993 207.184 534.641 204.993 536.711 192.948C537.699 187.211 542.543 182.917 551.092 180.204C554.071 179.258 554.372 179.743 554.372 185.497C554.372 199.98 562.175 208.738 575.054 208.713C588.08 208.689 608.732 197.292 617.6 185.233L621.861 179.439L628.677 183.784C638.413 189.989 654.069 207.354 659.339 217.793C668.639 236.217 668.919 252.183 660.124 262.636C654.888 268.86 647.318 271.097 634.889 270.096C617.43 268.69 591.952 256.208 596.167 251.129C597.167 249.924 597.706 245.618 597.402 241.257L596.864 233.522L603.44 232.538C609.494 231.631 618.821 232.209 633.561 234.405C637.007 234.918 639.356 234.635 639.356 233.705C639.356 232.846 635.712 231.562 631.259 230.852C623.252 229.579 623.096 229.448 617.039 218.93C609.896 206.524 607.549 207.728 614.361 220.304L618.972 228.816L606.373 229.191C599.443 229.397 588.645 229.369 582.38 229.126L570.984 228.689L571.72 232.538C572.163 234.854 571.656 236.693 570.448 237.157C567.644 238.234 563.248 247.188 564.246 249.788C564.703 250.979 566.132 251.534 567.447 251.029C569.122 250.386 569.824 251.078 569.824 253.373C569.824 257.33 572.605 257.605 575.399 253.925C577.239 251.5 577.457 251.483 577.5 253.759C577.551 256.398 581.195 258.65 582.806 257.036C583.315 256.53 583.73 254.492 583.73 252.508C583.73 250.525 584.154 248.903 584.673 248.903C585.19 248.903 589.308 252.279 593.823 256.405C602.808 264.617 618.78 271.655 632.402 273.406C640.009 274.382 640.136 274.487 640.607 280.192C641.241 287.834 643.991 287.677 643.991 279.999C643.991 274.704 644.482 273.913 648.24 273.157C655.189 271.762 662.828 265.589 666.785 258.174C679.695 233.983 651.864 186.516 616.463 172.351L610.245 169.864L601.563 176.934C596.788 180.825 592.422 184.006 591.859 184.006C590.703 184.006 590.824 183.897 601.813 174.941C607.02 170.696 611.307 165.415 613.984 159.942C617.663 152.423 618.039 150.183 617.408 139.552C616.305 120.958 609.159 110 595.487 105.939C587.249 103.493 584.639 103.388 575.623 105.137ZM582.075 112.871C584.727 114.291 589.432 123.195 588.186 124.441C587.859 124.767 584.154 124.393 579.954 123.608C575.753 122.825 571.06 122.58 569.524 123.067C567.99 123.555 566.749 123.385 566.767 122.69C566.823 120.688 571.848 115.039 575.232 113.178C579.062 111.071 578.739 111.086 582.075 112.871ZM445.332 121.989L449.14 129.504L445.359 131.227C442.394 132.578 441.576 132.513 441.576 130.927C441.576 129.815 439.932 125.658 437.923 121.689L434.271 114.475H437.897C440.683 114.475 442.406 116.216 445.332 121.989ZM456.305 118.259C459.251 119.49 461.663 121.16 461.663 121.97C461.663 123.288 452.363 127.42 451.566 126.457C451.386 126.241 450.092 123.803 448.685 121.041C446.406 116.557 446.391 116.02 448.539 116.02C449.863 116.02 453.358 117.027 456.305 118.259ZM264.309 119.127C253.459 121.571 245.339 130.838 245.37 140.742C245.391 147.635 249.356 159.148 253.086 163.147C255.299 165.52 255.772 167.705 255.12 172.563L254.27 178.889L245.153 180.584C240.139 181.517 231.873 184.396 226.783 186.982L217.529 191.686V184.549C217.529 180.623 218.353 174.661 219.36 171.301C220.766 166.605 220.769 164.514 219.369 162.272C218.007 160.091 217.969 157.382 219.224 151.53C221.737 139.817 218.442 134.693 213.932 143.301L211.783 147.403L210.723 141.756C208.946 132.279 203.711 135.764 203.644 146.467C203.632 148.34 201.884 151.611 199.76 153.735C196.73 156.765 195.897 159.171 195.897 164.899C195.897 170.18 193.287 178.853 186.459 196.259C175.221 224.903 168.929 250.494 170.15 262.591C172.04 281.311 189.732 293.694 205.84 287.57L209.803 286.064V300.961C209.803 309.154 210.253 315.411 210.802 314.861C211.35 314.312 212.392 303.632 213.113 291.129C213.836 278.625 215.82 259.822 217.523 249.345C221.083 227.444 221.341 223.763 219.074 227.271C218.058 228.844 217.569 224.086 217.552 212.451L217.529 195.314L224.869 191.346C231.528 187.747 236.082 186.228 248.818 183.359C252.876 182.446 253.068 182.667 253.068 188.268C253.068 200.659 261.269 205.639 281.673 205.639C293.685 205.639 295.283 205.283 298.719 201.845C301.32 199.245 302.513 196.331 302.513 192.574C302.513 189.561 303.072 187.097 303.755 187.097C305.047 187.097 316.626 194.493 321.572 198.478C324.366 200.73 324.882 203.29 326.285 221.863L326.985 231.134L324.406 224.695C319.022 211.254 317.652 215.274 322.689 229.732C327.669 244.031 334.511 271.609 336.549 285.6C337.571 292.612 339.116 298.348 339.984 298.348C340.965 298.348 341.2 295.716 340.608 291.394L339.655 284.441H349.073C368.415 284.441 377.842 273.534 376.243 253.001C374.802 234.508 362.271 200.566 350.377 182.943C347.722 179.008 344.159 172.075 342.461 167.535C338.958 158.173 335.865 154.398 332.692 155.616C331.164 156.203 330.206 154.815 329.485 150.97C328.477 145.592 324.939 140.977 323.177 142.74C322.686 143.23 322.182 145.415 322.056 147.593C321.781 152.363 320.886 152.572 318.323 148.468C315.824 144.468 311.783 144.478 311.783 148.485C311.783 150.194 313.29 154.797 315.13 158.712C317.901 164.607 318.151 166.355 316.583 168.867C315.038 171.341 315.149 172.608 317.188 175.72C318.564 177.82 320.691 179.921 321.917 180.392C323.437 180.975 324.145 183.648 324.145 188.804V196.363L316.805 191.143C312.768 188.274 307.902 185.446 305.989 184.862C304.076 184.277 302.508 183.323 302.503 182.744C302.499 182.163 301.777 177.517 300.899 172.418C300.022 167.319 298.676 157.39 297.908 150.353C296.202 134.721 291.73 125.618 283.971 121.987C276.897 118.676 270.463 117.739 264.309 119.127ZM283.509 125.229C286.23 126.887 289.57 130.399 290.932 133.032C293.965 138.897 295.528 150.979 294.184 158.15C293.325 162.728 292.668 163.382 289.533 162.782C286.849 162.269 286.083 161.31 286.645 159.163C287.599 155.518 285.749 147.717 284.281 149.193C283.686 149.791 283.198 152.441 283.198 155.08C283.198 159.414 282.477 160.138 275.761 162.555L268.324 165.231L264.173 159.231C259.576 152.587 257.465 152.226 256.121 157.853C255.254 161.481 255.169 161.503 253.483 158.513C252.111 156.078 252.261 154.849 254.189 152.719C256.448 150.222 256.382 150.013 253.337 150.013C249.384 150.013 247.63 144.726 249.058 137.116C250.008 132.055 253.916 127.38 260.021 124.004C265.118 121.184 277.977 121.854 283.509 125.229ZM586.922 128.435C589.367 129.744 589.911 131.722 589.911 139.301C589.911 144.398 588.942 150.888 587.757 153.723C583.468 163.991 573.26 167.004 566.642 159.959C563.54 156.657 562.823 154.055 562.33 144.305C562.004 137.834 562.345 132.987 563.095 133.451C563.84 133.911 565.833 133.219 567.523 131.913C570.539 129.583 570.533 129.555 567.12 130.36C563.745 131.158 562.576 129.963 564.674 127.866C566.31 126.229 583.628 126.672 586.922 128.435ZM581.504 133.74C585.384 136.675 586.949 136.692 585.835 133.789C585.345 132.514 583.495 131.471 581.725 131.471C578.562 131.471 578.557 131.511 581.504 133.74ZM570.796 142.446C570.269 145.082 570.222 147.864 570.694 148.627C572.526 151.591 573.813 149.75 574.05 143.832C574.34 136.521 572.166 135.594 570.796 142.446ZM579.949 139.066C579.452 139.871 579.703 140.935 580.509 141.433C581.314 141.93 582.378 141.679 582.876 140.873C583.373 140.068 583.121 139.004 582.316 138.506C581.511 138.009 580.447 138.261 579.949 139.066ZM209.947 156.194C210.788 156.194 212.789 153.239 214.392 149.627C215.998 146.014 217.361 143.547 217.419 144.143C217.722 147.147 214.009 160.829 212.892 160.829C212.181 160.829 210.655 161.192 209.497 161.637C207.853 162.268 207.374 160.151 207.309 151.98C207.252 144.987 207.422 143.95 207.822 148.854C208.152 152.892 209.107 156.194 209.947 156.194ZM272.64 141.773C272.073 142.338 271.609 143.814 271.609 145.052C271.609 146.876 272.047 146.938 273.927 145.378C275.202 144.319 276.245 142.844 276.245 142.099C276.245 140.498 274.106 140.305 272.64 141.773ZM287.985 141.879C286.125 143.738 287.14 145.378 290.151 145.378C291.851 145.378 293.242 144.756 293.242 143.998C293.242 142.261 289.223 140.64 287.985 141.879ZM532.25 144.123C531.758 145.354 531.391 144.988 531.317 143.188C531.251 141.56 531.615 140.648 532.128 141.161C532.641 141.674 532.697 143.007 532.25 144.123ZM531.297 148.522C533.354 149.624 534.285 151.762 534.285 155.384C534.285 161.677 533.527 162.244 523.511 163.43L515.754 164.349L517.445 159.5C518.375 156.833 519.809 155.069 520.632 155.577C522.559 156.768 526.686 151.39 525.792 148.854C524.965 146.506 527.269 146.367 531.297 148.522ZM274.822 150.914C274.896 152.714 275.262 153.08 275.755 151.849C276.202 150.733 276.146 149.4 275.633 148.887C275.12 148.374 274.755 149.285 274.822 150.914ZM288.606 150.877C288.606 152.201 289.312 152.848 290.176 152.315C291.04 151.781 291.347 150.698 290.857 149.906C289.533 147.763 288.606 148.162 288.606 150.877ZM575.141 150.786C572.186 153.069 572.186 153.137 575.105 155.395C578.591 158.09 582.185 156.045 582.185 151.37C582.185 147.873 579.226 147.629 575.141 150.786ZM324.296 160.829C325.062 160.829 325.69 158.627 325.69 155.936C325.69 149.863 326.513 150.608 327.824 157.864C328.732 162.897 328.507 163.385 325.325 163.272C323.133 163.193 320.841 161.416 319.188 158.511C315.439 151.928 315.833 149.791 319.687 155.807C321.456 158.569 323.53 160.829 324.296 160.829ZM203.011 158.865C201.441 160.437 200.145 158.071 201.433 155.987C202.407 154.411 202.771 154.411 203.294 155.98C203.652 157.054 203.524 158.352 203.011 158.865ZM335.88 159.523C336.565 160.628 336.305 160.888 335.2 160.203C334.057 159.497 333.372 160.384 333.293 162.669C333.227 164.632 332.813 165.346 332.376 164.255C331.564 162.238 332.72 157.739 334.049 157.739C334.449 157.739 335.274 158.542 335.88 159.523ZM205.554 168.941C204.979 170.667 207.016 170.259 211.349 167.782C214.799 165.809 214.882 165.563 212.121 165.472C209.175 165.375 209.164 165.293 211.883 163.712C215.765 161.456 218.203 164.117 216.923 169.215C216.046 172.711 215.128 173.19 209.31 173.19C201.602 173.19 198.987 171.155 198.987 165.156V160.829L202.464 164.306C204.377 166.219 205.766 168.305 205.554 168.941ZM339.53 169.769C341.594 177.203 341.555 177.826 339.012 177.826C337.842 177.826 336.019 178.869 334.961 180.144C332.07 183.628 328.284 182.953 323.661 178.127C318.917 173.176 318.553 171.273 321.827 168.555C323.726 166.979 324.145 167.085 324.145 169.139C324.145 170.522 325.39 171.645 326.926 171.645C328.456 171.645 330.542 172.48 331.561 173.499C333.003 174.941 333.416 174.822 333.416 172.963C333.416 171.648 331.852 169.789 329.939 168.831C326.657 167.189 326.7 167.143 330.712 167.991C334.316 168.754 334.961 168.382 334.961 165.54C334.961 160.622 337.693 163.15 339.53 169.769ZM287.903 169.258C289.989 171.344 291.696 173.778 291.696 174.666C291.696 177.147 287.506 176.58 286.502 173.963C285.242 170.681 281.253 171.09 278.977 174.735C276.571 178.588 273.155 178.761 273.155 175.031C273.155 171.883 277.663 165.137 277.741 168.169C277.768 169.246 279.669 170.078 282.039 170.051C286.109 170.004 286.162 169.905 283.289 167.733C281.639 166.486 281.149 165.465 282.2 165.465C283.251 165.465 285.817 167.172 287.903 169.258ZM214.311 178.813C215.652 179.975 205.801 179.093 202.85 177.786C200.787 176.872 202.07 176.723 206.713 177.336C210.537 177.843 213.957 178.507 214.311 178.813ZM207.872 182.107C211.483 182.474 214.439 183.459 214.439 184.298C214.439 185.233 211.897 185.402 207.872 184.736C201.166 183.625 195.897 181.508 195.897 179.924C195.897 179.437 197.115 179.581 198.601 180.241C200.087 180.902 204.261 181.741 207.872 182.107ZM343.459 182.047C338.859 183.195 337.883 185.881 340.834 189.258C342.277 190.912 342.652 191.794 341.667 191.221C338.55 189.405 335.013 191.891 333.556 196.919L332.149 201.776L332.009 195.765C331.921 191.981 330.869 188.996 329.166 187.702C326.89 185.975 326.842 185.643 328.857 185.601C330.175 185.573 332.06 186.36 333.049 187.349C334.415 188.714 335.222 188.158 336.41 185.031C337.615 181.859 338.958 180.958 342.262 181.095C345.523 181.231 345.809 181.46 343.459 182.047ZM206.713 187.676L215.211 189.669L209.314 191.627C206.07 192.704 203.281 193.342 203.116 193.046C202.952 192.747 201.5 190.941 199.89 189.028C198.28 187.115 197.244 185.581 197.589 185.616C197.934 185.654 202.039 186.579 206.713 187.676ZM347.322 190.566C347.322 191.428 346.298 191.259 345.004 190.187C343.729 189.129 342.686 187.568 342.686 186.718C342.686 185.856 343.711 186.024 345.004 187.097C346.279 188.155 347.322 189.716 347.322 190.566ZM419.331 189.476C418.095 190.712 416.035 191.321 414.754 190.83C413.473 190.338 409.326 191.752 405.537 193.973C400.311 197.035 398.409 199.211 397.66 202.982C395.724 212.717 395.926 213.947 399.798 215.911C403.61 217.842 408.989 230.346 409.085 237.492C409.108 239.289 410.441 242.43 412.045 244.47C414.738 247.892 418.37 258.084 418.39 262.273C418.394 263.253 413.674 265.488 407.898 267.242C389.42 272.856 369.767 289.14 360.491 306.528C358.81 309.677 356.664 312.254 355.721 312.254C354.777 312.254 345.525 308.014 335.157 302.83C322.324 296.415 314.97 291.73 312.114 288.151C306.501 281.116 303.681 281.264 304.31 288.562C304.782 294.048 304.569 294.307 297.667 296.674C286.335 300.562 283.209 304.667 287.008 310.676C288.093 312.393 290.938 312.85 298.413 312.515C307.608 312.103 308.784 312.429 313.71 316.754C316.645 319.331 323.698 328.001 329.383 336.02C346.954 360.81 358.962 369.085 375.107 367.533C382.743 366.799 382.86 366.854 382.86 371.106C382.86 373.481 383.451 375.788 384.172 376.234C384.894 376.679 385.915 369.593 386.441 360.488C386.967 351.38 388.811 335.691 390.537 325.621C394.104 304.814 394.172 304.038 392.335 305.174C391.598 305.63 389.747 311.947 388.224 319.21L385.452 332.417L380.685 327.542C378.064 324.861 372.275 320.61 367.82 318.096C358.486 312.829 358.456 313.101 369.992 298.042C378.058 287.512 387.536 279.475 396.753 275.348L403.514 272.321L408.681 282.705C419.406 304.263 434.804 316.347 446.471 312.365C449.304 311.4 453.098 309.372 454.905 307.863C462.27 301.704 466.235 287.737 463.465 277.704C461.943 272.193 462.022 271.983 465.245 272.956C476.948 276.491 499.478 294.493 507.191 306.472L509.934 310.734L503.551 317.659C500.04 321.468 496.653 324.496 496.026 324.388C495.397 324.282 493.384 320.29 491.551 315.519C486.273 301.786 475.57 283.523 475.57 288.252C475.57 288.748 478.067 294.114 481.12 300.176C490.816 319.428 498.654 348.69 498.713 365.857C498.731 371.118 499.37 375.808 500.13 376.277C501.797 377.308 503.382 373.601 503.382 368.671C503.382 365.821 504.031 365.248 506.519 365.899C508.243 366.35 512.669 365.568 516.352 364.162C528.831 359.395 541.209 343.846 554.575 316.142C563.048 298.578 562.027 299.431 578.708 296.035C582.53 295.256 583.724 294.21 583.707 291.659C583.667 285.985 581.161 283.87 573.409 282.966C566.831 282.198 566.004 281.692 566.329 278.633C566.868 273.556 562.064 274.192 556.593 279.925C554.097 282.539 546.144 288.222 538.921 292.553C531.697 296.883 522.916 302.368 519.406 304.742L513.026 309.057L505.689 299.72C501.655 294.585 494.793 287.552 490.439 284.091C480.364 276.08 462.516 267.531 453.038 266.176C445.125 265.043 442.469 262.169 447.778 260.485C454.279 258.421 457.015 250.966 457.022 235.299C457.028 221.462 457.202 220.736 461.655 215.985C466.357 210.968 468.052 202.27 464.729 200.215C463.865 199.68 463.471 198.738 463.854 198.118C465.915 194.782 457.544 190.658 446.212 189.431C444.087 189.201 441.029 188.467 439.418 187.801C437.805 187.135 434.632 187.29 432.369 188.144C430.091 189.005 426.763 189.147 424.915 188.464C422.673 187.634 420.84 187.967 419.331 189.476ZM197.706 191.199C201.276 194.428 201.755 199.305 198.215 196.368C196.94 195.309 195.897 193.545 195.897 192.444C195.897 191.344 195.029 190.094 193.966 189.665C192.904 189.237 192.675 188.83 193.457 188.764C194.241 188.697 196.152 189.793 197.706 191.199ZM329.783 196.374C328.584 202.371 331.376 211.298 335.315 214.057C339.922 217.283 340.327 216.155 337.357 208.377C335.398 203.25 335.168 200.66 336.382 197.466C338.712 191.337 341.141 192.353 341.141 199.458C341.141 205.325 342.923 207.462 345.004 204.093C345.53 203.244 347.228 202.548 348.777 202.548C350.38 202.548 352.022 201.046 352.583 199.072L353.569 195.595L355.765 199.458C357.843 203.114 357.722 203.423 353.532 205.209C348.754 207.245 343.862 213.061 345.16 215.161C345.599 215.872 344.683 216.455 343.122 216.455C341.56 216.455 338.66 217.592 336.674 218.982C333.663 221.093 333.195 222.482 333.851 227.377C334.386 231.353 333.995 233.491 332.641 234.011C330.308 234.907 329.395 229.536 327.85 205.801C327.031 193.208 327.22 189.995 328.721 190.923C329.876 191.636 330.297 193.801 329.783 196.374ZM197.442 200.121C197.442 201.209 187.116 211.819 186.057 211.819C184.206 211.819 185.087 206.318 187.487 202.893C189.486 200.037 197.442 197.822 197.442 200.121ZM211.039 202.857C213.243 205.061 213.516 210.274 211.429 210.274C209.752 210.274 202.078 203.469 202.078 201.984C202.078 200.252 209.12 200.938 211.039 202.857ZM202.275 208.343C204.236 210.844 204.164 210.877 201.305 208.78C199.605 207.533 197.926 206.317 197.57 206.076C197.217 205.835 197.654 205.639 198.541 205.639C199.428 205.639 201.109 206.855 202.275 208.343ZM361.788 211.047C362.341 212.49 361.777 213.364 360.293 213.364C358.843 213.364 358.129 214.421 358.467 216.068C358.787 217.624 360.147 218.579 361.67 218.318C364.937 217.759 365.113 220.053 362.001 222.635C360.726 223.694 359.683 225.452 359.683 226.543C359.683 227.765 358.498 228.216 356.593 227.719C353.011 226.782 352.381 222.635 355.82 222.635C358.248 222.635 358.969 219.346 356.979 217.355C356.341 216.719 355.808 215.385 355.794 214.395C355.78 213.403 354.215 212.647 352.317 212.714C348.594 212.847 347.657 211.02 350.799 209.752C354.882 208.105 360.932 208.817 361.788 211.047ZM195.897 210.955C195.897 211.331 195.202 212.066 194.352 212.592C193.502 213.117 192.807 212.81 192.807 211.91C192.807 211.011 193.502 210.274 194.352 210.274C195.202 210.274 195.897 210.58 195.897 210.955ZM200.532 215.591C200.532 216.816 199.777 218.284 198.853 218.856C196.671 220.205 193.692 217.226 195.041 215.044C196.555 212.593 200.532 212.989 200.532 215.591ZM208.258 216.503C208.258 218.23 207.186 220.053 205.874 220.557C202.662 221.79 202.192 220.966 203.753 216.841C205.392 212.508 208.258 212.294 208.258 216.503ZM185.82 225.86C186.498 227.061 185.492 226.56 183.587 224.749C180.938 222.23 180.407 220.591 181.332 217.796C182.508 214.242 182.573 214.274 183.565 218.907C184.128 221.53 185.143 224.659 185.82 225.86ZM193.439 219.661L197.923 224.412L192.661 223.91C188.219 223.487 187.323 222.745 186.91 219.159C186.278 213.669 187.901 213.794 193.439 219.661ZM353.503 219.899C353.503 220.804 352.521 220.654 351.185 219.545C349.91 218.486 348.867 217.38 348.867 217.087C348.867 216.793 349.91 216.952 351.185 217.44C352.46 217.93 353.503 219.037 353.503 219.899ZM453.937 234.34C453.937 249.016 452.089 254.362 445.91 257.557C441.199 259.992 440.733 261.436 443.175 266.001C444.243 267.995 446.43 268.998 449.742 269.013C458.009 269.053 459.226 270.774 459.778 283.205C460.401 297.224 457.426 303.975 448.764 308.204C440.356 312.311 433.095 309.905 424.312 300.103C417.73 292.757 406.538 272.609 408.147 271C408.601 270.547 411.267 269.711 414.071 269.141C418.898 268.162 419.198 267.707 419.647 260.685C420.009 255.074 419.161 251.42 416.171 245.704C413.997 241.546 412.218 237.696 412.218 237.149C412.218 236.603 414.27 236.566 416.778 237.067L421.338 237.979L421.8 229.148C422.211 221.289 422.602 220.376 425.352 220.846C427.052 221.138 430.181 221.336 432.305 221.286C434.43 221.238 438.719 221.198 441.837 221.2C444.955 221.2 447.972 220.447 448.542 219.525C449.276 218.337 450.212 218.377 451.757 219.659C453.315 220.951 453.937 225.145 453.937 234.34ZM212.316 225.004C211.335 227.56 204.315 228.094 202.85 225.726C202.325 224.876 203.241 224.18 204.888 224.18C206.534 224.18 208.808 223.062 209.944 221.693C212.228 218.942 213.799 221.136 212.316 225.004ZM346.936 220.61C345.449 220.999 344.232 221.88 344.232 222.569C344.232 223.256 342.493 224.153 340.369 224.559C338.244 224.965 336.506 224.837 336.506 224.275C336.506 221.775 340.605 219.56 344.927 219.724C347.527 219.823 348.428 220.22 346.936 220.61ZM416.325 220.732C418.149 221.89 420.982 233.451 419.443 233.451C412.858 233.451 406.356 223.8 410.97 220.874C413.448 219.302 414.056 219.287 416.325 220.732ZM448.417 224.985C451.592 227.388 453.366 227.006 451.683 224.284C451.124 223.377 449.489 222.657 448.052 222.685C445.757 222.728 445.802 223.008 448.417 224.985ZM369.795 235.852C372.621 248.555 371.978 252.296 368.385 244.06C366.171 238.984 366.113 238.958 365.99 242.982C365.81 248.87 364.399 251.842 360.89 253.719C358.371 255.066 357.022 254.594 353.345 251.071C348.203 246.142 347.401 247.324 351.957 253.116C358.183 261.031 354.627 270.367 346.183 268.281C342.741 267.431 342.288 267.607 343.845 269.189C346.228 271.612 346.386 279.247 344.083 280.67C341.379 282.341 338.695 278.134 336.731 269.144C335.729 264.555 335.094 260.703 335.321 260.584C335.548 260.465 337.819 259.666 340.369 258.81C344.142 257.545 344.925 256.499 344.578 253.195C344.343 250.962 344.865 248.694 345.737 248.155C346.608 247.616 347.322 245.502 347.322 243.458C347.322 241.322 348.637 239.037 350.412 238.087C352.112 237.177 353.503 235.085 353.503 233.436C353.503 230.93 354.261 230.59 358.138 231.365C362.347 232.207 362.773 231.918 362.773 228.236C362.773 225.747 363.628 224.18 364.986 224.18C366.48 224.18 368.039 227.964 369.795 235.852ZM429.924 225.829C429.363 226.734 429.277 227.847 429.73 228.301C430.837 229.408 433.85 227.458 433.85 225.634C433.85 223.66 431.184 223.791 429.924 225.829ZM349.43 228.034C348.941 229.304 347.847 229.913 346.994 229.386C346.043 228.797 346.254 227.918 347.543 227.101C350.357 225.319 350.452 225.365 349.43 228.034ZM201.254 229.36C203.953 231.333 203.89 231.504 200.126 232.448C195.403 233.634 191.822 232.507 190.657 229.469C189.54 226.558 197.312 226.478 201.254 229.36ZM181.991 230.361C178.965 232.317 176.919 232.317 178.128 230.361C178.653 229.511 180.259 228.827 181.696 228.839C183.947 228.861 183.989 229.071 181.991 230.361ZM212.894 244.304C212.894 249.101 212.455 253.463 211.919 253.999C208.938 256.978 200.532 246.495 200.532 239.8C200.532 233.201 203.522 235.387 206.087 243.861C209.188 254.104 211.091 251.012 208.36 240.168C206.362 232.237 207.632 228.391 210.812 232.74C211.976 234.33 212.894 239.434 212.894 244.304ZM448.596 231.8C448.106 232.591 448.414 233.674 449.277 234.208C450.141 234.741 450.847 234.094 450.847 232.77C450.847 230.055 449.92 229.656 448.596 231.8ZM185.296 235.047C182.018 237.779 175.81 239.266 175.81 237.319C175.81 236.413 185.155 232.192 187.399 232.084C188.249 232.042 187.303 233.377 185.296 235.047ZM350.412 233.499C350.412 235.491 346.01 237.289 344.596 235.876C344.02 235.299 344.572 234.182 345.822 233.391C348.813 231.5 350.412 231.537 350.412 233.499ZM433.144 233.345C432.089 235.052 434.526 236.897 435.953 235.469C437.421 234 437.148 231.906 435.487 231.906C434.686 231.906 433.633 232.554 433.144 233.345ZM442.839 236.226C442.428 239.025 442.676 241.675 443.39 242.115C445.532 243.439 446.719 238.164 445.096 234.528C443.684 231.362 443.535 231.473 442.839 236.226ZM594.586 237.421C596.187 241.631 595.189 248.323 592.732 249.841C591.923 250.341 589.94 249.555 588.325 248.095C586.711 246.633 584.285 245.862 582.934 246.38C581.514 246.925 580.878 246.678 581.423 245.795C581.942 244.955 581.451 244.267 580.331 244.267C579.209 244.267 577.383 245.726 576.269 247.508C575.156 249.291 573.891 250.394 573.457 249.96C573.022 249.526 573.86 247.35 575.318 245.126C579.12 239.323 577.233 238.79 571.581 244.07C565.876 249.399 564.971 247.435 570.556 241.849C572.659 239.746 576.499 237.602 579.087 237.084C581.677 236.566 584.169 235.537 584.626 234.797C585.084 234.057 587.173 233.451 589.268 233.451C591.938 233.451 593.53 234.639 594.586 237.421ZM197.264 242.738C198.909 248.228 206.766 258.338 210.578 259.87C212.534 260.655 211.611 279.806 209.618 279.806C207.13 279.806 206.137 274.905 208.014 271.896C210.59 267.772 210.315 267.42 205.312 268.42C199.114 269.66 195.154 263.77 196.323 255.051C197.173 248.72 195.302 246.563 193.604 251.914C191.578 258.297 179.679 256.901 178.534 250.145C178.007 247.035 177.717 247.268 176.237 251.993L174.543 257.401L174.426 252.766C174.226 244.967 175.873 241.177 179.467 241.169C181.28 241.165 184.849 239.878 187.399 238.308C193.383 234.624 195.06 235.377 197.264 242.738ZM342.024 238.75C344.55 241.276 344.876 244.525 342.818 246.662C342.039 247.469 341.171 249.869 340.886 251.993C340.534 254.621 339.258 256.014 336.892 256.35C332.586 256.961 332.264 254.2 336.512 253.089C338.447 252.583 339.284 251.431 338.742 250.018C338.261 248.765 338.947 247.345 340.281 246.832C343.697 245.522 343.271 241.177 339.724 241.177C338.096 241.177 336.532 241.824 336.248 242.614C335.965 243.405 334.446 243.104 332.875 241.945C331.302 240.786 330.474 239.096 331.035 238.19C332.504 235.811 339.439 236.165 342.024 238.75ZM433.85 245.544C433.85 247.231 437.528 248.903 441.239 248.903C444.447 248.903 441.987 246.517 437.327 245.109C435.406 244.528 433.85 244.723 433.85 245.544ZM334.645 248.833C333.609 250.494 332.461 251.553 332.094 251.188C331.433 250.525 334.8 245.812 335.936 245.812C336.263 245.812 335.684 247.172 334.645 248.833ZM367.409 257.31C367.409 261.967 364.937 263.701 361.894 261.176C359.882 259.506 359.92 258.928 362.202 256.408C365.726 252.511 367.409 252.803 367.409 257.31ZM373.59 256.72C373.59 258.469 372.894 259.472 372.044 258.946C371.195 258.421 370.499 256.99 370.499 255.765C370.499 254.54 371.195 253.538 372.044 253.538C372.894 253.538 373.59 254.971 373.59 256.72ZM190.2 262.809C188.058 271.898 181.178 272.371 180.143 263.5C179.543 258.358 179.608 258.296 185.322 258.619C190.653 258.92 191.039 259.251 190.2 262.809ZM176.068 267.805C174.694 269.178 174.29 268.341 174.37 264.277C174.467 259.271 174.577 259.161 176.173 262.474C177.429 265.081 177.403 266.47 176.068 267.805ZM358.362 272.474C357.503 273.333 355.695 273.611 354.345 273.092C352.197 272.269 352.28 271.757 355.012 269.025C356.732 267.306 358.242 265.031 358.37 263.968C358.496 262.907 358.898 264.033 359.263 266.474C359.628 268.914 359.221 271.615 358.362 272.474ZM199.527 274.002C197.011 278.072 190.356 271.601 192.176 266.857C192.903 264.968 193.791 265.326 196.665 268.667C198.637 270.96 199.924 273.359 199.527 274.002ZM368.954 268.308C368.954 269.633 368.259 270.288 367.409 269.762C366.559 269.237 365.864 268.154 365.864 267.353C365.864 266.553 366.559 265.899 367.409 265.899C368.259 265.899 368.954 266.984 368.954 268.308ZM365.841 275.557C365.853 276.193 364.448 276.716 362.719 276.716C359.988 276.716 359.807 276.283 361.34 273.417C362.75 270.781 363.378 270.547 364.461 272.258C365.207 273.435 365.827 274.92 365.841 275.557ZM185.81 273.554C186.311 274.365 186.249 276.909 185.673 279.206C184.685 283.14 184.502 283.218 182.535 280.527C179.789 276.771 179.865 272.08 182.672 272.08C183.897 272.08 185.308 272.743 185.81 273.554ZM194.352 278.372C194.352 279.101 192.961 280.441 191.262 281.351C188.072 283.057 187.43 281.989 189.072 277.712C189.978 275.351 194.352 275.898 194.352 278.372ZM206.713 283.845C206.713 284.172 205.648 284.441 204.347 284.441C201.453 284.441 199.846 280.731 201.206 277.188C202.044 275.008 202.586 275.296 204.462 278.91C205.699 281.297 206.713 283.517 206.713 283.845ZM355.048 278.474C355.048 280.228 350.619 282.074 349.382 280.836C348.889 280.342 348.892 278.877 349.391 277.581C350.327 275.139 355.048 275.886 355.048 278.474ZM565.335 284.441C567.029 284.441 569.098 286.095 570.068 288.224C571.017 290.305 573.262 292.297 575.057 292.649C577.284 293.086 576.797 293.358 573.529 293.502C564.233 293.91 559.204 299.301 548.821 319.991C534.395 348.737 518.248 365.058 506.737 362.53C502.723 361.648 502.384 360.852 499.96 346.601C497.471 331.973 497.484 331.476 500.493 326.607C505.249 318.912 516.335 309.936 534.883 298.76C544.193 293.151 553.95 286.637 556.568 284.285C560.082 281.128 561.455 280.589 561.825 282.226C562.1 283.445 563.679 284.441 565.335 284.441ZM198.002 283.669C198.606 285.245 197.918 285.986 195.849 285.986C192.813 285.986 191.887 284.33 193.837 282.382C195.506 280.713 197.05 281.19 198.002 283.669ZM325.951 301.762C330.481 304.066 342.314 309.734 352.246 314.357C364.346 319.991 372.78 325.079 377.805 329.781L385.306 336.797L384.219 349.46C383.543 357.314 382.346 362.62 381.063 363.433C377.843 365.474 366.31 365.018 360.576 362.621C352.56 359.271 343.351 350.073 331.87 333.948C316.17 311.894 313.713 309.936 301.726 309.936C292.495 309.936 290.113 308.612 297.104 307.37C299.068 307.021 300.362 305.398 300.651 302.92C300.913 300.676 302.554 298.38 304.514 297.513C307.134 296.354 307.805 294.942 307.417 291.394L306.913 286.782L312.315 292.178C315.285 295.146 321.422 299.46 325.951 301.762Z" fill="black"/>
</g>
<defs>
<clipPath id="clip0_90_7">
<rect width="840" height="380" fill="white"/>
</clipPath>
</defs>
</svg>
